<svg xmlns="http://www.w3.org/2000/svg" viewBox="0 0 400 350" width="400" height="350">
  <defs>
    <linearGradient id="bg_Smartphones" x1="0%" y1="0%" x2="100%" y2="100%">
      <stop offset="0%" style="stop-color:#0f172a;stop-opacity:1"/>
      <stop offset="100%" style="stop-color:#1e293b;stop-opacity:1"/>
    </linearGradient>
    <linearGradient id="glow_Smartphones" x1="0%" y1="0%" x2="100%" y2="100%">
      <stop offset="0%" style="stop-color:#06b6d4;stop-opacity:0.08"/>
      <stop offset="100%" style="stop-color:#06b6d4;stop-opacity:0.02"/>
    </linearGradient>
    <filter id="shadow_Smartphones">
      <feDropShadow dx="0" dy="2" stdDeviation="4" flood-color="#06b6d4" flood-opacity="0.15"/>
    </filter>
  </defs>

  <!-- Background -->
  <rect width="400" height="350" rx="12" fill="url(#bg_Smartphones)"/>
  <rect width="400" height="350" rx="12" fill="url(#glow_Smartphones)"/>

  <!-- Subtle grid pattern -->
  <g opacity="0.03" stroke="#06b6d4" stroke-width="0.5">
    <line x1="0" y1="50" x2="400" y2="50"/><line x1="0" y1="100" x2="400" y2="100"/>
    <line x1="0" y1="150" x2="400" y2="150"/><line x1="0" y1="200" x2="400" y2="200"/>
    <line x1="0" y1="250" x2="400" y2="250"/><line x1="0" y1="300" x2="400" y2="300"/>
    <line x1="50" y1="0" x2="50" y2="350"/><line x1="100" y1="0" x2="100" y2="350"/>
    <line x1="150" y1="0" x2="150" y2="350"/><line x1="200" y1="0" x2="200" y2="350"/>
    <line x1="250" y1="0" x2="250" y2="350"/><line x1="300" y1="0" x2="300" y2="350"/>
    <line x1="350" y1="0" x2="350" y2="350"/>
  </g>

  <!-- Category icon -->
  <g filter="url(#shadow_Smartphones)">
    <rect x="148" y="80" width="104" height="180" rx="16" fill="none" stroke="#06b6d4" stroke-width="4"/>
      <rect x="156" y="96" width="88" height="140" rx="4" fill="#06b6d4" opacity="0.15"/>
      <circle cx="200" cy="248" r="8" fill="none" stroke="#06b6d4" stroke-width="2"/>
      <rect x="180" y="86" width="40" height="4" rx="2" fill="#06b6d4" opacity="0.5"/>
  </g>

  <!-- Brand name -->
  <text x="200" y="50" text-anchor="middle" font-family="system-ui, -apple-system, sans-serif" font-size="13" font-weight="700" fill="#06b6d4" letter-spacing="3" opacity="0.9">SAMSUNG</text>

  <!-- Product name -->
  <text x="200" y="300" text-anchor="middle" font-family="system-ui, -apple-system, sans-serif" font-size="11" font-weight="500" fill="#94a3b8" opacity="0.8">Samsung Galaxy A54 5G</text>

  <!-- Category badge -->
  <rect x="200" y="318" x="-60" width="120" height="20" rx="10" fill="#06b6d4" opacity="0.1" transform="translate(140, 318)"/>
  <text x="200" y="332" text-anchor="middle" font-family="system-ui, -apple-system, sans-serif" font-size="9" font-weight="600" fill="#06b6d4" opacity="0.7">SMARTPHONES</text>

  <!-- ShopSmart branding -->
  <text x="200" y="22" text-anchor="middle" font-family="system-ui, -apple-system, sans-serif" font-size="8" font-weight="400" fill="#475569" opacity="0.4">SHOPSMART</text>
</svg>